<svg width="1440" height="1024" viewBox="0 0 1440 1024" fill="none" xmlns="http://www.w3.org/2000/svg">
<rect width="1440" height="1024" fill="#E0E0E0"/>
<rect width="1440" height="1024" fill="#FFFEF3"/>
<g clip-path="url(#clip0_1167_67)">
<path fill-rule="evenodd" clip-rule="evenodd" d="M195.778 67.3313C190.716 62.2532 181.82 63.4434 176.729 68.5459L150.823 94.3915L102.771 76.4353C98.1686 75.245 93.5334 73.7053 87.8256 79.4294C84.9128 82.3463 78.8596 88.4157 87.8256 97.3979L120.772 124.373L99.3347 145.766L79.3309 140.765C76.3652 140.001 74.3666 140.598 72.8431 142.28C72.0753 143.239 66.5056 147.367 70.3893 151.258L93.6471 169.353L111.741 192.611C114.553 195.43 117.165 193.671 120.736 190.279C122.999 188.012 122.511 186.846 121.829 183.543L117.311 163.678L138.603 142.313L165.537 175.268C174.499 184.25 180.556 178.177 183.469 175.268C189.181 169.54 187.645 164.9 186.455 160.289L168.649 112.157L194.45 86.2665C199.54 81.1681 200.844 72.4053 195.778 67.3313Z" fill="#DEDBFF" fill-opacity="0.16"/>
</g>
<g clip-path="url(#clip1_1167_67)">
<path fill-rule="evenodd" clip-rule="evenodd" d="M195.778 539.331C190.716 534.253 181.82 535.443 176.729 540.546L150.823 566.391L102.771 548.435C98.1686 547.245 93.5334 545.705 87.8256 551.429C84.9128 554.346 78.8596 560.416 87.8256 569.398L120.772 596.373L99.3347 617.766L79.3309 612.765C76.3652 612.001 74.3666 612.598 72.8431 614.28C72.0753 615.239 66.5056 619.367 70.3893 623.258L93.6471 641.353L111.741 664.611C114.553 667.43 117.165 665.671 120.736 662.279C122.999 660.012 122.511 658.846 121.829 655.543L117.311 635.678L138.603 614.313L165.537 647.268C174.499 656.25 180.556 650.177 183.469 647.268C189.181 641.54 187.645 636.9 186.455 632.289L168.649 584.157L194.45 558.266C199.54 553.168 200.844 544.405 195.778 539.331Z" fill="#DEDBFF" fill-opacity="0.16"/>
</g>
<g clip-path="url(#clip2_1167_67)">
<path fill-rule="evenodd" clip-rule="evenodd" d="M506.778 132.331C501.716 127.253 492.82 128.443 487.729 133.546L461.823 159.392L413.771 141.435C409.169 140.245 404.533 138.705 398.826 144.429C395.913 147.346 389.86 153.416 398.826 162.398L431.772 189.373L410.335 210.766L390.331 205.765C387.365 205.001 385.367 205.599 383.843 207.28C383.075 208.239 377.506 212.367 381.389 216.258L404.647 234.353L422.741 257.611C425.553 260.43 428.165 258.671 431.736 255.279C433.999 253.012 433.511 251.846 432.829 248.543L428.311 228.678L449.603 207.313L476.537 240.268C485.499 249.25 491.556 243.177 494.469 240.268C500.181 234.54 498.645 229.9 497.455 225.289L479.649 177.157L505.45 151.267C510.54 146.168 511.844 137.405 506.778 132.331Z" fill="#DEDBFF" fill-opacity="0.16"/>
</g>
<g clip-path="url(#clip3_1167_67)">
<path fill-rule="evenodd" clip-rule="evenodd" d="M506.778 586.331C501.716 581.253 492.82 582.443 487.729 587.546L461.823 613.391L413.771 595.435C409.169 594.245 404.533 592.705 398.826 598.429C395.913 601.346 389.86 607.416 398.826 616.398L431.772 643.373L410.335 664.766L390.331 659.765C387.365 659.001 385.367 659.598 383.843 661.28C383.075 662.239 377.506 666.367 381.389 670.258L404.647 688.353L422.741 711.611C425.553 714.43 428.165 712.671 431.736 709.279C433.999 707.012 433.511 705.846 432.829 702.543L428.311 682.678L449.603 661.313L476.537 694.268C485.499 703.25 491.556 697.177 494.469 694.268C500.181 688.54 498.645 683.9 497.455 679.289L479.649 631.157L505.45 605.266C510.54 600.168 511.844 591.405 506.778 586.331Z" fill="#DEDBFF" fill-opacity="0.16"/>
</g>
<g clip-path="url(#clip4_1167_67)">
<path fill-rule="evenodd" clip-rule="evenodd" d="M672.778 324.331C667.716 319.253 658.82 320.443 653.729 325.546L627.823 351.392L579.771 333.435C575.169 332.245 570.533 330.705 564.826 336.429C561.913 339.346 555.86 345.416 564.826 354.398L597.772 381.373L576.335 402.766L556.331 397.765C553.365 397.001 551.367 397.599 549.843 399.28C549.075 400.239 543.506 404.367 547.389 408.258L570.647 426.353L588.741 449.611C591.553 452.43 594.165 450.671 597.736 447.279C599.999 445.012 599.511 443.846 598.829 440.543L594.311 420.678L615.603 399.313L642.537 432.268C651.499 441.25 657.556 435.177 660.469 432.268C666.181 426.54 664.645 421.9 663.455 417.289L645.649 369.157L671.45 343.267C676.54 338.168 677.844 329.405 672.778 324.331Z" fill="#DEDBFF" fill-opacity="0.16"/>
</g>
<g clip-path="url(#clip5_1167_67)">
<path fill-rule="evenodd" clip-rule="evenodd" d="M672.778 843.331C667.716 838.253 658.82 839.443 653.729 844.546L627.823 870.391L579.771 852.435C575.169 851.245 570.533 849.705 564.826 855.429C561.913 858.346 555.86 864.416 564.826 873.398L597.772 900.373L576.335 921.766L556.331 916.765C553.365 916.001 551.367 916.598 549.843 918.28C549.075 919.239 543.506 923.367 547.389 927.258L570.647 945.353L588.741 968.611C591.553 971.43 594.165 969.671 597.736 966.279C599.999 964.012 599.511 962.846 598.829 959.543L594.311 939.678L615.603 918.313L642.537 951.268C651.499 960.25 657.556 954.177 660.469 951.268C666.181 945.54 664.645 940.9 663.455 936.289L645.649 888.157L671.45 862.266C676.54 857.168 677.844 848.405 672.778 843.331Z" fill="#DEDBFF" fill-opacity="0.16"/>
</g>
<g clip-path="url(#clip6_1167_67)">
<path fill-rule="evenodd" clip-rule="evenodd" d="M1341.78 324.331C1336.72 319.253 1327.82 320.443 1322.73 325.546L1296.82 351.392L1248.77 333.435C1244.17 332.245 1239.53 330.705 1233.83 336.429C1230.91 339.346 1224.86 345.416 1233.83 354.398L1266.77 381.373L1245.33 402.766L1225.33 397.765C1222.37 397.001 1220.37 397.599 1218.84 399.28C1218.08 400.239 1212.51 404.367 1216.39 408.258L1239.65 426.353L1257.74 449.611C1260.55 452.43 1263.16 450.671 1266.74 447.279C1269 445.012 1268.51 443.846 1267.83 440.543L1263.31 420.678L1284.6 399.313L1311.54 432.268C1320.5 441.25 1326.56 435.177 1329.47 432.268C1335.18 426.54 1333.65 421.9 1332.45 417.289L1314.65 369.157L1340.45 343.267C1345.54 338.168 1346.84 329.405 1341.78 324.331Z" fill="#DEDBFF" fill-opacity="0.16"/>
</g>
<g clip-path="url(#clip7_1167_67)">
<path fill-rule="evenodd" clip-rule="evenodd" d="M1329.78 826.331C1324.72 821.253 1315.82 822.443 1310.73 827.546L1284.82 853.391L1236.77 835.435C1232.17 834.245 1227.53 832.705 1221.83 838.429C1218.91 841.346 1212.86 847.416 1221.83 856.398L1254.77 883.373L1233.33 904.766L1213.33 899.765C1210.37 899.001 1208.37 899.598 1206.84 901.28C1206.08 902.239 1200.51 906.367 1204.39 910.258L1227.65 928.353L1245.74 951.611C1248.55 954.43 1251.16 952.671 1254.74 949.279C1257 947.012 1256.51 945.846 1255.83 942.543L1251.31 922.678L1272.6 901.313L1299.54 934.268C1308.5 943.25 1314.56 937.177 1317.47 934.268C1323.18 928.54 1321.65 923.9 1320.45 919.289L1302.65 871.157L1328.45 845.266C1333.54 840.168 1334.84 831.405 1329.78 826.331Z" fill="#DEDBFF" fill-opacity="0.16"/>
</g>
<g clip-path="url(#clip8_1167_67)">
<path fill-rule="evenodd" clip-rule="evenodd" d="M1276.78 67.3313C1271.72 62.2532 1262.82 63.4434 1257.73 68.5459L1231.82 94.3915L1183.77 76.4353C1179.17 75.245 1174.53 73.7053 1168.83 79.4294C1165.91 82.3463 1159.86 88.4157 1168.83 97.3979L1201.77 124.373L1180.33 145.766L1160.33 140.765C1157.37 140.001 1155.37 140.598 1153.84 142.28C1153.08 143.239 1147.51 147.367 1151.39 151.258L1174.65 169.353L1192.74 192.611C1195.55 195.43 1198.16 193.671 1201.74 190.279C1204 188.012 1203.51 186.846 1202.83 183.543L1198.31 163.678L1219.6 142.313L1246.54 175.268C1255.5 184.25 1261.56 178.177 1264.47 175.268C1270.18 169.54 1268.65 164.9 1267.45 160.289L1249.65 112.157L1275.45 86.2665C1280.54 81.1681 1281.84 72.4053 1276.78 67.3313Z" fill="#DEDBFF" fill-opacity="0.16"/>
</g>
<g clip-path="url(#clip9_1167_67)">
<path fill-rule="evenodd" clip-rule="evenodd" d="M1211.78 569.331C1206.72 564.253 1197.82 565.443 1192.73 570.546L1166.82 596.391L1118.77 578.435C1114.17 577.245 1109.53 575.705 1103.83 581.429C1100.91 584.346 1094.86 590.416 1103.83 599.398L1136.77 626.373L1115.33 647.766L1095.33 642.765C1092.37 642.001 1090.37 642.598 1088.84 644.28C1088.08 645.239 1082.51 649.367 1086.39 653.258L1109.65 671.353L1127.74 694.611C1130.55 697.43 1133.16 695.671 1136.74 692.279C1139 690.012 1138.51 688.846 1137.83 685.543L1133.31 665.678L1154.6 644.313L1181.54 677.268C1190.5 686.25 1196.56 680.177 1199.47 677.268C1205.18 671.54 1203.65 666.9 1202.45 662.289L1184.65 614.157L1210.45 588.266C1215.54 583.168 1216.84 574.405 1211.78 569.331Z" fill="#DEDBFF" fill-opacity="0.16"/>
</g>
<g clip-path="url(#clip10_1167_67)">
<path fill-rule="evenodd" clip-rule="evenodd" d="M1024.78 238.331C1019.72 233.253 1010.82 234.443 1005.73 239.546L979.823 265.392L931.771 247.435C927.169 246.245 922.533 244.705 916.826 250.429C913.913 253.346 907.86 259.416 916.826 268.398L949.772 295.373L928.335 316.766L908.331 311.765C905.365 311.001 903.367 311.599 901.843 313.28C901.075 314.239 895.506 318.367 899.389 322.258L922.647 340.353L940.741 363.611C943.553 366.43 946.165 364.671 949.736 361.279C951.999 359.012 951.511 357.846 950.829 354.543L946.311 334.678L967.603 313.313L994.537 346.268C1003.5 355.25 1009.56 349.177 1012.47 346.268C1018.18 340.54 1016.65 335.9 1015.45 331.289L997.649 283.157L1023.45 257.267C1028.54 252.168 1029.84 243.405 1024.78 238.331Z" fill="#DEDBFF" fill-opacity="0.16"/>
</g>
<g clip-path="url(#clip11_1167_67)">
<path fill-rule="evenodd" clip-rule="evenodd" d="M987.778 778.331C982.716 773.253 973.82 774.443 968.729 779.546L942.823 805.391L894.771 787.435C890.169 786.245 885.533 784.705 879.826 790.429C876.913 793.346 870.86 799.416 879.826 808.398L912.772 835.373L891.335 856.766L871.331 851.765C868.365 851.001 866.367 851.598 864.843 853.28C864.075 854.239 858.506 858.367 862.389 862.258L885.647 880.353L903.741 903.611C906.553 906.43 909.165 904.671 912.736 901.279C914.999 899.012 914.511 897.846 913.829 894.543L909.311 874.678L930.603 853.313L957.537 886.268C966.499 895.25 972.556 889.177 975.469 886.268C981.181 880.54 979.645 875.9 978.455 871.289L960.649 823.157L986.45 797.266C991.54 792.168 992.844 783.405 987.778 778.331Z" fill="#DEDBFF" fill-opacity="0.16"/>
</g>
<g clip-path="url(#clip12_1167_67)">
<path fill-rule="evenodd" clip-rule="evenodd" d="M817.778 67.3313C812.716 62.2532 803.82 63.4434 798.729 68.5459L772.823 94.3915L724.771 76.4353C720.169 75.245 715.533 73.7053 709.826 79.4294C706.913 82.3463 700.86 88.4157 709.826 97.3979L742.772 124.373L721.335 145.766L701.331 140.765C698.365 140.001 696.367 140.598 694.843 142.28C694.075 143.239 688.506 147.367 692.389 151.258L715.647 169.353L733.741 192.611C736.553 195.43 739.165 193.671 742.736 190.279C744.999 188.012 744.511 186.846 743.829 183.543L739.311 163.678L760.603 142.313L787.537 175.268C796.499 184.25 802.556 178.177 805.469 175.268C811.181 169.54 809.645 164.9 808.455 160.289L790.649 112.157L816.45 86.2665C821.54 81.1681 822.844 72.4053 817.778 67.3313Z" fill="#DEDBFF" fill-opacity="0.16"/>
</g>
<g clip-path="url(#clip13_1167_67)">
<path fill-rule="evenodd" clip-rule="evenodd" d="M882.778 539.331C877.716 534.253 868.82 535.443 863.729 540.546L837.823 566.391L789.771 548.435C785.169 547.245 780.533 545.705 774.826 551.429C771.913 554.346 765.86 560.416 774.826 569.398L807.772 596.373L786.335 617.766L766.331 612.765C763.365 612.001 761.367 612.598 759.843 614.28C759.075 615.239 753.506 619.367 757.389 623.258L780.647 641.353L798.741 664.611C801.553 667.43 804.165 665.671 807.736 662.279C809.999 660.012 809.511 658.846 808.829 655.543L804.311 635.678L825.603 614.313L852.537 647.268C861.499 656.25 867.556 650.177 870.469 647.268C876.181 641.54 874.645 636.9 873.455 632.289L855.649 584.157L881.45 558.266C886.54 553.168 887.844 544.405 882.778 539.331Z" fill="#DEDBFF" fill-opacity="0.16"/>
</g>
<g clip-path="url(#clip14_1167_67)">
<path fill-rule="evenodd" clip-rule="evenodd" d="M286.778 303.331C281.716 298.253 272.82 299.443 267.729 304.546L241.823 330.392L193.771 312.435C189.169 311.245 184.533 309.705 178.826 315.429C175.913 318.346 169.86 324.416 178.826 333.398L211.772 360.373L190.335 381.766L170.331 376.765C167.365 376.001 165.367 376.599 163.843 378.28C163.075 379.239 157.506 383.367 161.389 387.258L184.647 405.353L202.741 428.611C205.553 431.43 208.165 429.671 211.736 426.279C213.999 424.012 213.511 422.846 212.829 419.543L208.311 399.678L229.603 378.313L256.537 411.268C265.499 420.25 271.556 414.177 274.469 411.268C280.181 405.54 278.645 400.9 277.455 396.289L259.649 348.157L285.45 322.267C290.54 317.168 291.844 308.405 286.778 303.331Z" fill="#DEDBFF" fill-opacity="0.16"/>
</g>
<g clip-path="url(#clip15_1167_67)">
<path fill-rule="evenodd" clip-rule="evenodd" d="M286.778 822.331C281.716 817.253 272.82 818.443 267.729 823.546L241.823 849.391L193.771 831.435C189.169 830.245 184.533 828.705 178.826 834.429C175.913 837.346 169.86 843.416 178.826 852.398L211.772 879.373L190.335 900.766L170.331 895.765C167.365 895.001 165.367 895.598 163.843 897.28C163.075 898.239 157.506 902.367 161.389 906.258L184.647 924.353L202.741 947.611C205.553 950.43 208.165 948.671 211.736 945.279C213.999 943.012 213.511 941.846 212.829 938.543L208.311 918.678L229.603 897.313L256.537 930.268C265.499 939.25 271.556 933.177 274.469 930.268C280.181 924.54 278.645 919.9 277.455 915.289L259.649 867.157L285.45 841.266C290.54 836.168 291.844 827.405 286.778 822.331Z" fill="#DEDBFF" fill-opacity="0.16"/>
</g>
<defs>
<clipPath id="clip0_1167_67">
<rect width="130" height="130" fill="white" transform="translate(69 64)"/>
</clipPath>
<clipPath id="clip1_1167_67">
<rect width="130" height="130" fill="white" transform="translate(69 536)"/>
</clipPath>
<clipPath id="clip2_1167_67">
<rect width="130" height="130" fill="white" transform="translate(380 129)"/>
</clipPath>
<clipPath id="clip3_1167_67">
<rect width="130" height="130" fill="white" transform="translate(380 583)"/>
</clipPath>
<clipPath id="clip4_1167_67">
<rect width="130" height="130" fill="white" transform="translate(546 321)"/>
</clipPath>
<clipPath id="clip5_1167_67">
<rect width="130" height="130" fill="white" transform="translate(546 840)"/>
</clipPath>
<clipPath id="clip6_1167_67">
<rect width="130" height="130" fill="white" transform="translate(1215 321)"/>
</clipPath>
<clipPath id="clip7_1167_67">
<rect width="130" height="130" fill="white" transform="translate(1203 823)"/>
</clipPath>
<clipPath id="clip8_1167_67">
<rect width="130" height="130" fill="white" transform="translate(1150 64)"/>
</clipPath>
<clipPath id="clip9_1167_67">
<rect width="130" height="130" fill="white" transform="translate(1085 566)"/>
</clipPath>
<clipPath id="clip10_1167_67">
<rect width="130" height="130" fill="white" transform="translate(898 235)"/>
</clipPath>
<clipPath id="clip11_1167_67">
<rect width="130" height="130" fill="white" transform="translate(861 775)"/>
</clipPath>
<clipPath id="clip12_1167_67">
<rect width="130" height="130" fill="white" transform="translate(691 64)"/>
</clipPath>
<clipPath id="clip13_1167_67">
<rect width="130" height="130" fill="white" transform="translate(756 536)"/>
</clipPath>
<clipPath id="clip14_1167_67">
<rect width="130" height="130" fill="white" transform="translate(160 300)"/>
</clipPath>
<clipPath id="clip15_1167_67">
<rect width="130" height="130" fill="white" transform="translate(160 819)"/>
</clipPath>
</defs>
</svg>
